<svg width="42" height="46" viewBox="0 0 42 46" fill="none" xmlns="http://www.w3.org/2000/svg">
<path d="M39.9102 10.0039L23.0703 0.539063C21.793 -0.175781 20.207 -0.175781 18.9297 0.539063L2.08984 10.0039C0.800781 10.7266 0 12.082 0 13.5352V32.4648C0 33.918 0.800781 35.2734 2.08984 35.9961L18.9297 45.4609C19.5703 45.8203 20.2852 46 21 46C21.7148 46 22.4297 45.8203 23.0703 45.4609L39.9102 35.9961C41.1992 35.2734 42 33.918 42 32.4648V13.5352C42 12.082 41.1992 10.7266 39.9102 10.0039ZM21 35C14.3828 35 9 29.6172 9 23C9 16.3828 14.3828 11 21 11C24.7812 11 28.2734 12.7539 30.543 15.7422L26.1602 18.2773C24.8438 16.8359 22.9727 16 21 16C17.1406 16 14 19.1406 14 23C14 26.8594 17.1406 30 21 30C22.9727 30 24.8438 29.1641 26.1602 27.7227L30.543 30.2578C28.2734 33.2461 24.7812 35 21 35ZM33 24H31V26H29V24H27V22H29V20H31V22H33V24ZM40 24H38V26H36V24H34V22H36V20H38V22H40V24Z" fill="#8ECAE6"/>
</svg>
