<svg width="55" height="55" viewBox="0 0 55 55" fill="none" xmlns="http://www.w3.org/2000/svg">
<circle cx="27.5" cy="27.5" r="26.5" stroke="black" stroke-width="2"/>
<path d="M27.7176 29.8719H23.7473V40.7H20.8999V13.75H27.4369C29.5758 13.75 31.1933 14.2981 32.2895 15.3943C33.3857 16.4637 33.9338 17.9342 33.9338 19.8057V23.776C33.9338 26.6635 32.7841 28.5351 30.4848 29.3906L34.7759 40.7H31.6478L27.7176 29.8719ZM23.7473 27.3854H27.3166C29.8298 27.3854 31.0864 26.1689 31.0864 23.7359V19.926C31.0864 17.4931 29.8298 16.2766 27.3166 16.2766H23.7473V27.3854Z" fill="black"/>
<path d="M39.1874 39.4466C39.1874 40.1388 38.6263 40.6999 37.9342 40.6999C37.242 40.6999 36.6809 40.1388 36.6809 39.4466C36.6809 38.7545 37.242 38.1934 37.9342 38.1934C38.6263 38.1934 39.1874 38.7545 39.1874 39.4466Z" fill="black"/>
</svg>
