<svg width="685" height="750" viewBox="0 0 685 750" fill="none" xmlns="http://www.w3.org/2000/svg">
<circle cx="342.5" cy="374.5" r="342.5" fill="#1F2532"/>
<path d="M380.8 446.2C404.8 484.6 433.6 521.6 467.2 557.2L387.4 608.8C350.6 561.2 315.2 504.4 281.2 438.4C253.6 486 228.6 537 206.2 591.4L138.4 529C165.2 469.8 189.2 422.8 210.4 388C244.8 330.8 280.6 280.2 317.8 236.2C290.2 231.4 265.2 229 242.8 229L268.6 157.6C343.8 160 409.2 169.8 464.8 187C485.6 193.4 506.6 201.2 527.8 210.4L574.6 313.6C533.8 367.6 469.2 411.8 380.8 446.2ZM305.2 398.2C359.6 377.4 408 351.2 450.4 319.6C464.8 309.2 477.2 298.6 487.6 287.8C449.6 267.8 399.2 251.8 336.4 239.8L388 281.8C356 322.6 328.4 361.4 305.2 398.2Z" fill="#D76316"/>
</svg>
