<svg width="48" height="30" viewBox="0 0 48 30" fill="none" xmlns="http://www.w3.org/2000/svg">
<path d="M24 0.604004C17.6 0.604004 13.6 3.803 12 10.201C14.4 7.002 17.2 5.803 20.4 6.602C22.226 7.058 23.531 8.383 24.976 9.849C27.328 12.236 30.051 15 36 15C42.4 15 46.4 11.801 48 5.402C45.6 8.601 42.8 9.801 39.6 9.002C37.775 8.546 36.47 7.221 35.025 5.755C32.672 3.367 29.948 0.604004 24 0.604004ZM12 15C5.6 15 1.6 18.199 0 24.598C2.4 21.399 5.2 20.199 8.4 20.999C10.225 21.456 11.53 22.78 12.975 24.245C15.328 26.633 18.052 29.397 24 29.397C30.4 29.397 34.4 26.198 36 19.799C33.6 22.998 30.8 24.198 27.6 23.398C25.774 22.942 24.469 21.617 23.024 20.152C20.672 17.764 17.949 15 12 15Z" fill="#8ECAE6"/>
</svg>
